<?xml version="1.0" encoding="utf-8"?>
<!-- Generator: Adobe Illustrator 19.0.0, SVG Export Plug-In . SVG Version: 6.00 Build 0)  -->
<svg version="1.1" id="Layer_1" xmlns="http://www.w3.org/2000/svg" xmlns:xlink="http://www.w3.org/1999/xlink" x="0px" y="0px"
	 width="1400px" height="980px" viewBox="0 0 1400 980" enable-background="new 0 0 1400 980" xml:space="preserve">
<rect id="XMLID_836_" x="199.9" y="506.4" width="110.9" height="101.1"/>
<rect id="XMLID_840_" x="199.9" y="743.4" width="110.9" height="101.1"/>
<g id="XMLID_353_">
	<g id="XMLID_352_">
		<g id="XMLID_3_">
			<rect id="XMLID_863_" x="86.4" y="126.6" width="103" height="314"/>
		</g>
	</g>
	<g id="XMLID_356_">
		<g id="XMLID_582_">
			<g id="XMLID_775_">
				<rect id="XMLID_862_" x="135.4" y="126.6" fill="#FFFFFF" width="5" height="8"/>
			</g>
		</g>
		<g id="XMLID_576_">
			<g id="XMLID_765_">
				<path id="XMLID_6_" fill="#FFFFFF" d="M140.4,416.9h-5v-15.7h5V416.9z M140.4,385.5h-5v-15.7h5V385.5z M140.4,354.1h-5v-15.7h5
					V354.1z M140.4,322.8h-5v-15.7h5V322.8z M140.4,291.4h-5v-15.7h5V291.4z M140.4,260h-5v-15.7h5V260z M140.4,228.7h-5V213h5
					V228.7z M140.4,197.3h-5v-15.7h5V197.3z M140.4,165.9h-5v-15.7h5V165.9z"/>
			</g>
		</g>
		<g id="XMLID_439_">
			<g id="XMLID_764_">
				<rect id="XMLID_861_" x="135.4" y="432.6" fill="#FFFFFF" width="5" height="8"/>
			</g>
		</g>
	</g>
</g>
<g id="XMLID_386_">
	<g id="XMLID_375_">
		<g id="XMLID_587_">
			<g id="XMLID_763_">
				<rect id="XMLID_860_" x="252.9" y="506.4" fill="#FFFFFF" width="5" height="8"/>
			</g>
		</g>
		<g id="XMLID_574_">
			<g id="XMLID_752_">
				<path id="XMLID_7_" fill="#FFFFFF" d="M257.9,821.1h-5v-15.3h5V821.1z M257.9,790.4h-5v-15.3h5V790.4z M257.9,759.8h-5v-16.4h5
					V759.8z M257.9,607.5h-5v-16.4h5V607.5z M257.9,575.7h-5v-15.3h5V575.7z M257.9,545h-5v-15.3h5V545z"/>
			</g>
		</g>
		<g id="XMLID_573_">
			<g id="XMLID_751_">
				<rect id="XMLID_859_" x="252.9" y="836.5" fill="#FFFFFF" width="5" height="8"/>
			</g>
		</g>
	</g>
	<g id="XMLID_360_">
		<g id="XMLID_390_">
			<g id="XMLID_5_">
				<rect id="XMLID_858_" x="86.4" y="619.9" width="338.1" height="110.9"/>
			</g>
		</g>
		<g id="XMLID_384_">
			<g id="XMLID_572_">
				<g id="XMLID_750_">
					<rect id="XMLID_857_" x="416.5" y="672.9" fill="#FFFFFF" width="8" height="5"/>
				</g>
			</g>
			<g id="XMLID_571_">
				<g id="XMLID_739_">
					<path id="XMLID_10_" fill="#FFFFFF" d="M401.1,677.9h-15.3v-5h15.3V677.9z M370.4,677.9h-15.3v-5h15.3V677.9z M339.8,677.9
						h-15.3v-5h15.3V677.9z M309.1,677.9h-15.3v-5h15.3V677.9z M278.4,677.9h-15.3v-5h15.3V677.9z M247.7,677.9h-15.3v-5h15.3V677.9
						z M217.1,677.9h-15.3v-5h15.3V677.9z M186.4,677.9h-15.3v-5h15.3V677.9z M155.7,677.9h-15.3v-5h15.3V677.9z M125,677.9h-15.3
						v-5H125V677.9z"/>
				</g>
			</g>
			<g id="XMLID_565_">
				<g id="XMLID_738_">
					<rect id="XMLID_856_" x="86.4" y="672.9" fill="#FFFFFF" width="8" height="5"/>
				</g>
			</g>
		</g>
	</g>
</g>
<g id="XMLID_535_">
	<g id="XMLID_388_">
		<g id="XMLID_486_">
			<path id="XMLID_8_" d="M432.4,424.2c-69.6,0-126.2-56.6-126.2-126.2s56.6-126.2,126.2-126.2S558.6,228.4,558.6,298
				S502,424.2,432.4,424.2z M432.4,257c-22.6,0-41,18.4-41,41c0,22.6,18.4,41,41,41c22.6,0,41-18.4,41-41
				C473.4,275.4,455,257,432.4,257z"/>
		</g>
	</g>
	<g id="XMLID_431_">
		<g id="XMLID_451_">
			<rect id="XMLID_855_" x="389.8" y="126.6" width="85.2" height="80"/>
		</g>
	</g>
	<g id="XMLID_432_">
		<g id="XMLID_442_">
			<rect id="XMLID_854_" x="261" y="255.4" width="80" height="85.2"/>
		</g>
	</g>
	<g id="XMLID_433_">
		<g id="XMLID_441_">
			<rect id="XMLID_853_" x="389.8" y="389.4" width="85.2" height="80"/>
		</g>
	</g>
	<g id="XMLID_434_">
		<g id="XMLID_440_">
			<rect id="XMLID_852_" x="523.8" y="255.4" width="80" height="85.2"/>
		</g>
	</g>
	<g id="XMLID_534_">
		<path id="XMLID_819_" fill="#FFFFFF" d="M432.4,384.1c-4.3,0-8.7-0.3-13-1l0.7-4.9c5.1,0.8,10.3,1.1,15.5,0.8l0.2,5
			C434.7,384.1,433.5,384.1,432.4,384.1z M452.1,381.8l-1.1-4.9c5-1.2,10-2.9,14.7-5l2.1,4.6C462.7,378.8,457.5,380.6,452.1,381.8z
			 M403.5,379.1c-5.2-1.8-10.2-4.2-14.9-7l2.5-4.3c4.4,2.6,9.2,4.8,14,6.6L403.5,379.1z M482,368.4l-2.9-4.1
			c4.2-3,8.2-6.4,11.8-10.1l3.6,3.5C490.7,361.6,486.5,365.2,482,368.4z M375.3,362.4c-4.1-3.6-7.9-7.7-11.2-12l4-3
			c3.1,4.1,6.7,7.9,10.6,11.3L375.3,362.4z M504.7,344.8l-4.2-2.7c2.8-4.3,5.2-9,7.1-13.7l4.6,1.9
			C510.2,335.2,507.7,340.1,504.7,344.8z M355.3,336.5c-2.5-4.9-4.4-10.1-5.9-15.4l4.8-1.3c1.4,5,3.3,9.8,5.6,14.5L355.3,336.5z
			 M516.9,314.4l-4.9-0.9c1-5,1.5-10.2,1.5-15.4c0-4.3-0.3-8.7-1-13l4.9-0.8c0.7,4.5,1.1,9.2,1.1,13.8
			C518.5,303.5,518,309,516.9,314.4z M346.6,304.9c-0.2-2.3-0.3-4.6-0.3-6.9c0-3.2,0.2-6.4,0.5-9.5l5,0.5c-0.3,3-0.5,6-0.5,9
			c0,2.2,0.1,4.4,0.3,6.5L346.6,304.9z M355,273.8l-4.8-1.5c1.6-5.2,3.8-10.3,6.4-15.2l4.4,2.4C358.5,264.1,356.5,268.9,355,273.8z
			 M508.5,270c-1.8-4.8-4-9.5-6.7-14l4.3-2.6c2.8,4.7,5.2,9.7,7.1,14.8L508.5,270z M369.6,246.7l-3.9-3.2c3.5-4.2,7.4-8.2,11.6-11.7
			l3.2,3.8C376.5,239,372.9,242.7,369.6,246.7z M492.6,243.7c-3.5-3.8-7.3-7.4-11.4-10.5l3-4c4.4,3.3,8.5,7,12.1,11.1L492.6,243.7z
			 M393.3,226.9l-2.4-4.4c4.8-2.7,9.9-4.8,15.1-6.5l1.5,4.8C402.6,222.4,397.8,224.4,393.3,226.9z M467.9,225.1
			c-4.6-2.3-9.5-4.1-14.5-5.4l1.3-4.8c5.3,1.4,10.5,3.4,15.4,5.8L467.9,225.1z M422.6,217.5l-0.6-5c3.4-0.4,6.9-0.6,10.3-0.6
			c0,0,0,0,0,0c2,0,4.1,0.1,6.1,0.2l-0.4,5c-1.9-0.1-3.8-0.2-5.7-0.2c0,0,0,0,0,0C429.1,216.9,425.8,217.1,422.6,217.5z"/>
	</g>
	<g id="XMLID_533_">
		<path id="XMLID_816_" fill="#FFFFFF" d="M434.9,177.4h-5v-16h5V177.4z M434.9,145.4h-5v-16h5V145.4z"/>
	</g>
	<g id="XMLID_532_">
		<path id="XMLID_813_" fill="#FFFFFF" d="M314.7,300.5h-16v-5h16V300.5z M282.7,300.5h-16v-5h16V300.5z"/>
	</g>
	<g id="XMLID_531_">
		<path id="XMLID_810_" fill="#FFFFFF" d="M434.9,464.7h-5v-16h5V464.7z M434.9,432.7h-5v-16h5V432.7z"/>
	</g>
	<g id="XMLID_389_">
		<path id="XMLID_807_" fill="#FFFFFF" d="M599.9,300.5h-16v-5h16V300.5z M567.9,300.5h-16v-5h16V300.5z"/>
	</g>
</g>
<g id="XMLID_548_">
	<g id="XMLID_552_">
		<g id="XMLID_559_">
			<g id="XMLID_9_">
				<rect id="XMLID_851_" x="954.8" y="500.9" width="103" height="348.9"/>
			</g>
		</g>
	</g>
	<g id="XMLID_551_">
		<g id="XMLID_560_">
			<g id="XMLID_11_">
				<path id="XMLID_850_" d="M796.1,686.1v-100c69.1,0,134.1,26.9,183,75.8c48.9,48.9,75.8,113.8,75.8,183v5h-100v-5
					C954.9,757.3,883.6,686.1,796.1,686.1z"/>
			</g>
		</g>
	</g>
	<g id="XMLID_549_">
		<g id="XMLID_726_">
			<path id="XMLID_12_" fill="#FFFFFF" d="M1007.4,849.9h-5v-5c0-2.6-0.1-5.3-0.1-7.9l5-0.2c0.1,2.7,0.2,5.4,0.2,8.1V849.9z
				 M1001,821.2c-0.6-5.2-1.4-10.5-2.4-15.6l4.9-0.9c1,5.3,1.8,10.7,2.5,16L1001,821.2z M995,790.2c-1.4-5.1-3-10.1-4.8-15.1
				l4.7-1.7c1.8,5.1,3.5,10.3,4.9,15.4L995,790.2z M984.4,760.5c-2.1-4.8-4.5-9.5-7-14.1l4.4-2.4c2.6,4.7,5,9.6,7.2,14.5
				L984.4,760.5z M969.3,732.8c-2.8-4.4-5.9-8.7-9.1-12.9l4-3c3.3,4.3,6.4,8.7,9.3,13.2L969.3,732.8z M950.1,707.7
				c-3.5-3.9-7.2-7.7-11-11.4l3.5-3.6c3.9,3.7,7.6,7.7,11.2,11.7L950.1,707.7z M927.4,685.8c-4-3.3-8.3-6.6-12.6-9.6l2.9-4.1
				c4.4,3.1,8.7,6.4,12.9,9.8L927.4,685.8z M901.5,667.6c-4.5-2.7-9.2-5.2-13.9-7.6l2.2-4.5c4.8,2.4,9.6,5,14.2,7.8L901.5,667.6z
				 M873.2,653.5c-4.9-2-9.9-3.8-14.9-5.3l1.5-4.8c5.1,1.6,10.3,3.5,15.2,5.5L873.2,653.5z M843.1,644c-5.1-1.2-10.3-2.2-15.5-3
				l0.8-4.9c5.3,0.8,10.7,1.8,15.9,3.1L843.1,644z M811.9,639.2c-5.2-0.4-10.5-0.6-15.8-0.6v-5c5.4,0,10.8,0.2,16.2,0.6L811.9,639.2
				z"/>
		</g>
	</g>
	<g id="XMLID_553_">
		<g id="XMLID_594_">
			<g id="XMLID_725_">
				<rect id="XMLID_849_" x="1003.8" y="500.9" fill="#FFFFFF" width="5" height="8"/>
			</g>
		</g>
		<g id="XMLID_593_">
			<g id="XMLID_718_">
				<path id="XMLID_14_" fill="#FFFFFF" d="M1008.8,696.8h-5v-15.7h5V696.8z M1008.8,665.5h-5v-15.7h5V665.5z M1008.8,634.2h-5
					v-15.7h5V634.2z M1008.8,602.9h-5v-15.7h5V602.9z M1008.8,571.6h-5v-15.7h5V571.6z M1008.8,540.3h-5v-15.7h5V540.3z"/>
			</g>
		</g>
		<g id="XMLID_591_">
			<g id="XMLID_717_">
				<rect id="XMLID_848_" x="1003.8" y="712.5" fill="#FFFFFF" width="5" height="8"/>
			</g>
		</g>
	</g>
</g>
<g id="XMLID_558_">
	<g id="XMLID_557_">
		<g id="XMLID_556_">
			<path id="XMLID_847_" d="M769.7,447.3h-100V276.5c0-82.7,67.3-150,150-150h0.9c82.7,0,150,67.3,150,150v57.1h-100v-57.1
				c0-27.6-22.4-50-50-50h-0.9c-27.6,0-50,22.4-50,50V447.3z"/>
		</g>
	</g>
	<g id="XMLID_555_">
		<path id="XMLID_789_" fill="#FFFFFF" d="M722.2,447.3h-5v-16h5V447.3z M722.2,415.3h-5v-16h5V415.3z M722.2,383.3h-5v-16h5V383.3z
			 M722.2,351.3h-5v-16h5V351.3z M722.2,319.3h-5v-16h5V319.3z M923.1,318.6h-5v-16h5V318.6z M722.2,287.3h-5v-10.8
			c0-1.8,0-3.6,0.1-5.3l5,0.3c-0.1,1.7-0.1,3.4-0.1,5.1V287.3z M923.1,286.6h-5v-10.1c0-1.9-0.1-3.8-0.2-5.7l5-0.3
			c0.1,2,0.2,4,0.2,6V286.6z M724.4,256l-4.9-1c1.1-5.3,2.7-10.6,4.7-15.7l4.7,1.8C727,245.9,725.5,250.9,724.4,256z M915.8,255.4
			c-1.1-5.1-2.7-10.1-4.6-14.9l4.6-1.8c2,5.1,3.6,10.3,4.8,15.7L915.8,255.4z M735.7,227.1l-4.3-2.5c2.8-4.7,5.9-9.2,9.4-13.4
			l3.8,3.2C741.3,218.3,738.3,222.6,735.7,227.1z M904.3,226.5c-2.7-4.4-5.7-8.7-9-12.7l3.8-3.2c3.5,4.2,6.7,8.7,9.5,13.3
			L904.3,226.5z M755.5,203.2l-3.3-3.8c4.1-3.6,8.5-6.9,13.1-9.8l2.7,4.2C763.6,196.6,759.4,199.7,755.5,203.2z M884.3,202.8
			c-3.9-3.4-8.2-6.5-12.6-9.2l2.6-4.3c4.6,2.9,9.1,6.1,13.2,9.7L884.3,202.8z M781.8,186.7l-1.9-4.6c5-2.1,10.3-3.8,15.6-5.1
			l1.2,4.9C791.6,183,786.6,184.7,781.8,186.7z M857.9,186.4c-4.8-2-9.8-3.6-14.8-4.8l1.1-4.9c5.3,1.3,10.6,2.9,15.6,5L857.9,186.4z
			 M812,179.4l-0.4-5c2.7-0.2,5.4-0.3,8.1-0.3h0.9c2.5,0,4.9,0.1,7.4,0.3l-0.4,5c-2.3-0.2-4.7-0.2-7-0.2h-0.9
			C817.1,179.1,814.5,179.2,812,179.4z"/>
	</g>
</g>
<g id="XMLID_575_">
	<g id="XMLID_563_">
		<g id="XMLID_585_">
			<g id="XMLID_13_">
				<rect id="XMLID_846_" x="1105.1" y="229.6" width="103" height="194.6"/>
			</g>
		</g>
	</g>
	<g id="XMLID_562_">
		<g id="XMLID_592_">
			<g id="XMLID_15_">
				<rect id="XMLID_845_" x="999.6" y="126.6" width="314" height="103"/>
			</g>
		</g>
		<g id="XMLID_586_">
			<g id="XMLID_581_">
				<g id="XMLID_716_">
					<rect id="XMLID_844_" x="1305.6" y="175.6" fill="#FFFFFF" width="8" height="5"/>
				</g>
			</g>
			<g id="XMLID_580_">
				<g id="XMLID_706_">
					<path id="XMLID_18_" fill="#FFFFFF" d="M1290,180.6h-15.7v-5h15.7V180.6z M1258.6,180.6h-15.7v-5h15.7V180.6z M1227.2,180.6
						h-15.7v-5h15.7V180.6z M1195.8,180.6h-15.7v-5h15.7V180.6z M1164.5,180.6h-15.7v-5h15.7V180.6z M1133.1,180.6h-15.7v-5h15.7
						V180.6z M1101.7,180.6h-15.7v-5h15.7V180.6z M1070.4,180.6h-15.7v-5h15.7V180.6z M1039,180.6h-15.7v-5h15.7V180.6z"/>
				</g>
			</g>
			<g id="XMLID_579_">
				<g id="XMLID_705_">
					<rect id="XMLID_843_" x="999.6" y="175.6" fill="#FFFFFF" width="8" height="5"/>
				</g>
			</g>
		</g>
	</g>
	<g id="XMLID_564_">
		<g id="XMLID_578_">
			<g id="XMLID_704_">
				<rect id="XMLID_842_" x="1154.1" y="178.1" fill="#FFFFFF" width="5" height="8"/>
			</g>
		</g>
		<g id="XMLID_577_">
			<g id="XMLID_598_">
				<path id="XMLID_17_" fill="#FFFFFF" d="M1159.1,400.8h-5v-15.3h5V400.8z M1159.1,370.2h-5v-15.3h5V370.2z M1159.1,339.5h-5
					v-15.3h5V339.5z M1159.1,308.8h-5v-15.3h5V308.8z M1159.1,278.1h-5v-15.3h5V278.1z M1159.1,247.4h-5v-15.3h5V247.4z
					 M1159.1,216.8h-5v-15.3h5V216.8z"/>
			</g>
		</g>
		<g id="XMLID_570_">
			<g id="XMLID_597_">
				<rect id="XMLID_841_" x="1154.1" y="416.2" fill="#FFFFFF" width="5" height="8"/>
			</g>
		</g>
	</g>
</g>
<g id="XMLID_546_">
	<g id="XMLID_537_">
		<g id="XMLID_544_">
			<g id="XMLID_16_">
				<rect id="XMLID_839_" x="1156.8" y="500.9" width="103" height="352.5"/>
			</g>
		</g>
		<g id="XMLID_539_">
			<g id="XMLID_569_">
				<g id="XMLID_596_">
					<rect id="XMLID_838_" x="1205.8" y="760.6" fill="#FFFFFF" width="5" height="8"/>
				</g>
			</g>
			<g id="XMLID_568_">
				<g id="XMLID_589_">
					<path id="XMLID_21_" fill="#FFFFFF" d="M1210.8,830.1h-5v-15.4h5V830.1z M1210.8,799.3h-5V784h5V799.3z"/>
				</g>
			</g>
			<g id="XMLID_567_">
				<g id="XMLID_588_">
					<rect id="XMLID_837_" x="1205.8" y="845.4" fill="#FFFFFF" width="5" height="8"/>
				</g>
			</g>
		</g>
		<g id="XMLID_538_">
			<g id="XMLID_701_">
				<g id="XMLID_584_">
					<rect id="XMLID_759_" x="1205.8" y="500.9" fill="#FFFFFF" width="5" height="8"/>
				</g>
			</g>
			<g id="XMLID_700_">
				<g id="XMLID_436_">
					<path id="XMLID_22_" fill="#FFFFFF" d="M1210.8,638.7h-5v-16.2h5V638.7z M1210.8,606.3h-5v-16.2h5V606.3z M1210.8,573.8h-5
						v-16.2h5V573.8z M1210.8,541.4h-5v-16.2h5V541.4z"/>
				</g>
			</g>
			<g id="XMLID_699_">
				<g id="XMLID_435_">
					<rect id="XMLID_758_" x="1205.8" y="654.9" fill="#FFFFFF" width="5" height="8"/>
				</g>
			</g>
		</g>
	</g>
	<g id="XMLID_540_">
		<g id="XMLID_536_">
			<rect id="XMLID_757_" x="1166.2" y="673.3" fill="#FFFFFF" width="9.2" height="79.7"/>
		</g>
		<g id="XMLID_541_">
			<rect id="XMLID_756_" x="1185" y="673.3" fill="#FFFFFF" width="9.2" height="79.7"/>
		</g>
		<g id="XMLID_542_">
			<rect id="XMLID_387_" x="1203.7" y="673.3" fill="#FFFFFF" width="9.2" height="79.7"/>
		</g>
		<g id="XMLID_543_">
			<rect id="XMLID_385_" x="1222.5" y="673.3" fill="#FFFFFF" width="9.2" height="79.7"/>
		</g>
		<g id="XMLID_545_">
			<rect id="XMLID_383_" x="1241.2" y="673.3" fill="#FFFFFF" width="9.2" height="79.7"/>
		</g>
	</g>
</g>
<g id="XMLID_378_">
	<g id="XMLID_357_">
		<g id="XMLID_359_">
			<path id="XMLID_365_" d="M564.5,833.7H458.3c0-73.3,28.6-142.3,80.4-194.1c51.9-51.9,120.8-80.4,194.1-80.4h5.3v106.1h-5.3
				C640,665.3,564.5,740.8,564.5,833.7z"/>
		</g>
	</g>
	<g id="XMLID_358_">
		<path id="XMLID_776_" fill="#FFFFFF" d="M513.9,833.7h-5c0-5.4,0.2-10.8,0.6-16.2l5,0.4C514.1,823.1,513.9,828.5,513.9,833.7z
			 M516.2,802.2l-4.9-0.7c0.8-5.3,1.7-10.7,2.9-15.9l4.9,1.1C517.8,791.8,516.9,797,516.2,802.2z M522.9,771.3l-4.8-1.4
			c1.5-5.2,3.3-10.3,5.2-15.3l4.7,1.8C526.1,761.3,524.4,766.3,522.9,771.3z M534.1,741.8l-4.5-2.1c2.3-4.9,4.7-9.7,7.3-14.4
			l4.4,2.4C538.7,732.2,536.3,737,534.1,741.8z M549.4,714.1l-4.2-2.7c2.9-4.5,6.1-8.9,9.3-13.2l4,3
			C555.4,705.4,552.3,709.7,549.4,714.1z M568.6,688.9l-3.8-3.3c3.6-4,7.3-8,11.1-11.7l3.5,3.6C575.7,681.1,572,685,568.6,688.9z
			 M591.1,666.8l-3.2-3.8c4.1-3.5,8.4-6.8,12.7-10l3,4C599.3,660.1,595.1,663.4,591.1,666.8z M616.6,648.1l-2.7-4.2
			c4.5-2.9,9.3-5.6,14-8.1l2.3,4.4C625.6,642.7,621,645.3,616.6,648.1z M644.5,633.3l-2-4.6c4.9-2.2,9.9-4.2,15-6l1.7,4.7
			C654.2,629.2,649.3,631.2,644.5,633.3z M674.2,622.7l-1.3-4.8c5.2-1.4,10.5-2.7,15.7-3.8l1,4.9C684.4,620,679.3,621.3,674.2,622.7
			z M705.2,616.4l-0.6-5c5.3-0.7,10.7-1.2,16.1-1.4l0.3,5C715.7,615.3,710.4,615.8,705.2,616.4z M738.2,614.7h-1.4v-5h1.4V614.7z"/>
	</g>
</g>
</svg>
